<?xml version="1.0" encoding="UTF-8" standalone="no"?>
<svg
   xmlns:dc="http://purl.org/dc/elements/1.1/"
   xmlns:cc="http://creativecommons.org/ns#"
   xmlns:rdf="http://www.w3.org/1999/02/22-rdf-syntax-ns#"
   xmlns:svg="http://www.w3.org/2000/svg"
   xmlns="http://www.w3.org/2000/svg"
   width="470"
   height="50"
   viewBox="0 0 124.35416 13.229166"
   version="1.1"
   id="svg8">
  <defs
     id="defs2" />
  <metadata
     id="metadata5">
    <rdf:RDF>
      <cc:Work
         rdf:about="">
        <dc:format>image/svg+xml</dc:format>
        <dc:type
           rdf:resource="http://purl.org/dc/dcmitype/StillImage" />
        <dc:title></dc:title>
      </cc:Work>
    </rdf:RDF>
  </metadata>
  <g
     id="layer1"
     transform="translate(-17.146187,-58.272375)">
    <g
       id="g843"
       transform="matrix(0.02745514,0,0,-0.0274731,17.058566,71.719716)">
      <path
         d="m 153.844,160.652 h 25.445 c 13.305,0 22.133,1.262 26.492,3.782 4.36,2.527 6.532,7.23 6.532,14.105 0,6.879 -2.637,11.809 -7.911,14.793 -5.273,2.977 -13.867,4.469 -25.793,4.469 h -24.765 z m 0,140.332 h 17.879 c 10.55,0 17.886,1.258 22.019,3.789 4.125,2.52 6.192,6.989 6.192,13.411 0,6.418 -2.297,11.007 -6.883,13.761 -4.59,2.754 -12.153,4.125 -22.699,4.125 h -16.508 z m 160.281,-35.765 c 18.344,-17.43 31.297,-34.516 38.863,-51.258 7.571,-16.731 11.356,-36.109 11.356,-58.125 0,-40.356 -15.367,-74.5235 -46.094,-102.5001 -7.336,-6.875 -14.445,-12.4961 -21.324,-16.8515 -6.875,-4.3555 -14.446,-7.793 -22.699,-10.3164 -8.258,-2.5196 -17.657,-4.2383 -28.211,-5.1641 -10.543,-0.9141 -23.157,-1.3711 -37.828,-1.3711 H 87.7969 c -16.5039,0 -29.3438,1.4922 -38.5196,4.4688 C 40.1094,27.0898 31.3906,33.1641 23.1367,42.3359 18.5547,47.375 14.6523,53 11.4414,59.1875 8.23438,65.3828 5.9375,71.6836 4.56641,78.1016 4.10938,80.8555 3.76172,84.6445 3.53125,89.457 3.30469,94.2734 3.19141,104.016 3.19141,118.691 v 260.028 22.015 c 0.45703,22.926 7.90629,41.614 22.35939,56.059 14.4453,14.445 32.9023,21.68 55.3711,21.68 h 64.6641 c 12.383,0 22.816,-0.125 31.297,-0.348 8.488,-0.23 15.828,-0.578 22.015,-1.035 6.192,-0.457 11.696,-1.027 16.512,-1.719 4.817,-0.691 9.516,-1.492 14.102,-2.406 31.64,-7.801 57.207,-24.195 76.699,-49.184 19.492,-24.996 29.238,-54.465 29.238,-88.402 0,-13.297 -1.488,-24.766 -4.472,-34.395 -2.977,-9.632 -8.594,-21.554 -16.852,-35.765"
         style="fill:#393536;fill-opacity:1;fill-rule:nonzero;stroke:none"
         id="path845" />
      <path
         d="m 1663.73,441.324 c 5.97,11.914 15.02,21.668 27.18,29.235 12.14,7.566 25.33,11.343 39.55,11.343 9.17,0 18.57,-1.828 28.2,-5.504 9.63,-3.664 17.66,-8.703 24.08,-15.125 6.42,-6.429 11.35,-13.304 14.79,-20.64 3.44,-7.344 6.3,-17.195 8.6,-29.582 l 52.28,-295.801 c 0.91,-5.043 1.6,-9.633 2.06,-13.754 0.46,-4.1249 0.69,-8.0272 0.69,-11.6952 0,-10.5508 -1.95,-20.293 -5.85,-29.2422 -3.9,-8.9414 -9.17,-16.6172 -15.81,-23.0391 -6.66,-6.4218 -14.57,-11.5781 -23.74,-15.4804 -9.17,-3.8985 -18.8,-5.8477 -28.89,-5.8477 -19.26,0 -35.78,5.2774 -49.53,15.8242 -13.76,10.543 -22.25,24.5313 -25.46,41.9649 l -17.19,85.9845 -29.58,-81.172 c -15.14,-41.7305 -41.05,-62.6016 -77.73,-62.6016 -18.81,0 -34.4,4.9336 -46.79,14.7891 -12.38,9.8593 -22.46,25.5664 -30.26,47.1211 l -30.27,81.8634 -12.38,-72.9142 C 1464.01,65.0391 1455.41,47.7227 1441.88,35.1133 1428.35,22.5 1411.73,16.1914 1392,16.1914 c -22.46,0 -40.81,7.6875 -55.02,23.0469 -14.22,15.3672 -21.33,35.1953 -21.33,59.5039 0,3.2068 0.12,6.3088 0.34,9.2848 0.24,2.985 0.58,6.075 1.04,9.293 l 52.28,293.731 c 3.67,22.015 12.04,39.324 25.1,51.941 13.07,12.606 29.47,18.91 49.2,18.91 16.04,0 31.06,-4.578 45.05,-13.754 13.98,-9.171 24.19,-21.55 30.61,-37.144 l 68.11,-152.031 76.35,162.351"
         style="fill:#393536;fill-opacity:1;fill-rule:nonzero;stroke:none"
         id="path847" />
      <path
         d="m 2050.66,7.94141 c -24.3,0 -47.01,2.97659 -68.1,8.93749 -21.1,5.9609 -39.44,14.2188 -55.03,24.7656 -15.59,10.5508 -27.75,22.8164 -36.46,36.8008 -8.71,13.9883 -13.07,29.2387 -13.07,45.7497 0,9.633 1.72,18.571 5.16,26.828 3.43,8.258 8.25,15.481 14.45,21.668 6.18,6.196 13.52,11.122 22.01,14.789 8.48,3.668 17.54,5.504 27.17,5.504 9.17,0 18,-1.714 26.48,-5.156 8.49,-3.445 17.54,-9.062 27.17,-16.855 8.26,-6.418 14.91,-11.469 19.95,-15.137 5.05,-3.664 9.18,-6.531 12.38,-8.598 3.21,-2.066 5.97,-3.324 8.27,-3.781 2.29,-0.457 4.81,-0.691 7.56,-0.691 5.96,0 10.67,1.839 14.1,5.507 3.44,3.668 5.16,8.481 5.16,14.446 0,7.797 -3.9,14.219 -11.69,19.258 -0.92,0.464 -1.95,1.035 -3.1,1.726 -1.15,0.68 -2.75,1.485 -4.82,2.406 -2.06,0.914 -4.81,2.063 -8.25,3.434 -3.44,1.383 -8.14,3.211 -14.1,5.508 -6.42,2.293 -12.62,4.469 -18.57,6.527 -5.96,2.07 -12.16,4.246 -18.58,6.543 -66.49,23.383 -99.75,66.949 -99.75,130.703 0,22.469 4.13,42.875 12.39,61.219 8.25,18.344 19.72,34.172 34.39,47.469 14.68,13.297 32.45,23.613 53.31,30.961 20.87,7.332 43.68,11 68.45,11 20.64,0 39.9,-2.633 57.79,-7.91 17.88,-5.274 33.48,-12.387 46.78,-21.325 13.29,-8.941 23.72,-19.492 31.29,-31.64 7.57,-12.16 11.35,-25.344 11.35,-39.559 0,-18.344 -5.5,-33.363 -16.51,-45.059 -11,-11.691 -25.22,-17.539 -42.64,-17.539 -10.55,0 -20.41,1.946 -29.58,5.848 -9.18,3.891 -20.19,10.656 -33.02,20.285 -7.8,6.43 -13.99,10.781 -18.58,13.074 -4.58,2.293 -8.94,3.442 -13.07,3.442 -5.05,0 -9.28,-1.723 -12.72,-5.16 -3.45,-3.442 -5.17,-7.676 -5.17,-12.727 0,-6.875 3.1,-12.379 9.29,-16.504 6.2,-4.133 18.23,-9.176 36.12,-15.136 19.72,-5.965 38.29,-13.184 55.72,-21.668 17.43,-8.489 31.41,-17.321 41.96,-26.489 14.22,-11.926 25.45,-27.398 33.71,-46.433 8.25,-19.035 12.38,-39.555 12.38,-61.567 0,-20.64 -3.78,-40.468 -11.35,-59.504 -7.57,-19.0348 -18.24,-35.6559 -31.99,-49.8747 -15.59,-15.5937 -33.82,-27.1718 -54.69,-34.7421 -20.86,-7.5625 -45.52,-11.34379 -73.95,-11.34379"
         style="fill:#00adef;fill-opacity:1;fill-rule:nonzero;stroke:none"
         id="path849" />
      <path
         d="m 2323.41,337.449 c -13.3,0 -24.43,1.606 -33.37,4.813 -8.94,3.215 -16.85,8.254 -23.74,15.129 -14.2,15.136 -21.32,31.875 -21.32,50.218 0,13.297 3.79,25.914 11.36,37.84 7.56,11.922 16.85,20.406 27.86,25.453 4.12,1.832 7.79,3.211 11.01,4.125 3.2,0.914 7.56,1.606 13.06,2.063 5.5,0.457 12.73,0.805 21.68,1.035 8.93,0.223 20.97,0.348 36.11,0.348 h 152.71 c 10.55,0 18.8,0 24.77,0 5.96,0 10.55,0 13.76,0 3.2,0 5.61,-0.125 7.22,-0.348 1.61,-0.23 3.55,-0.578 5.84,-1.035 18.35,-2.297 33.25,-9.86 44.71,-22.703 11.47,-12.84 17.2,-28.199 17.2,-46.086 0,-10.086 -2.17,-19.949 -6.53,-29.582 -4.36,-9.629 -10.43,-17.887 -18.23,-24.762 -11.92,-11.012 -31.41,-16.508 -58.47,-16.508 h -33.7 V 109.063 c 0,-13.7622 -0.93,-25.0005 -2.76,-33.7114 -1.84,-8.711 -5.27,-16.9649 -10.32,-24.7657 -6.87,-11.0039 -15.7,-19.4882 -26.48,-25.4492 -10.78,-5.9609 -22.82,-8.9453 -36.12,-8.9453 -12.84,0 -24.64,2.7539 -35.42,8.2578 -10.78,5.5039 -19.84,13.2969 -27.17,23.3906 -5.05,7.793 -8.49,15.8165 -10.32,24.0743 -1.84,8.2578 -2.76,20.1757 -2.76,35.7699 v 229.765 h -40.58"
         style="fill:#00adef;fill-opacity:1;fill-rule:nonzero;stroke:none"
         id="path851" />
      <path
         d="m 2741.98,79.4844 c -9.63,-22.4727 -20.52,-38.6446 -32.68,-48.5039 -12.14,-9.8555 -27.39,-14.7891 -45.74,-14.7891 -10.55,0 -20.4,1.9492 -29.58,5.8477 -9.17,3.9023 -17.08,9.2851 -23.73,16.164 -6.65,6.8828 -11.93,14.9102 -15.82,24.0821 -3.9,9.1718 -5.85,19.0273 -5.85,29.5781 0,12.8397 3.21,26.1367 9.63,39.8987 l 143.77,304.746 c 6.42,14.211 15.83,25.336 28.21,33.359 12.38,8.028 26.13,12.035 41.27,12.035 15.59,0 29.58,-4.007 41.96,-12.035 12.38,-8.023 22.01,-19.371 28.89,-34.051 l 144.47,-308.183 c 5.96,-11.461 8.94,-23.617 8.94,-36.4611 0,-10.543 -2.07,-20.293 -6.19,-29.2305 -4.14,-8.9414 -9.63,-16.8555 -16.51,-23.7383 -6.88,-6.8789 -14.91,-12.2617 -24.08,-16.164 -9.17,-3.8985 -19.03,-5.8477 -29.58,-5.8477 -17.42,0 -31.99,4.7031 -43.68,14.1055 -11.69,9.3984 -22.82,25.7929 -33.37,49.1875 h -140.33"
         style="fill:#00adef;fill-opacity:1;fill-rule:nonzero;stroke:none"
         id="path853" />
      <path
         d="m 3399.26,139.332 c 5.04,-7.801 8.71,-15.937 11.01,-24.426 2.29,-8.484 3.44,-16.6208 3.44,-24.4216 0,-10.543 -1.96,-20.2891 -5.85,-29.2344 -3.9,-8.9414 -9.29,-16.7422 -16.17,-23.3828 -6.87,-6.6563 -14.9,-11.9258 -24.07,-15.8281 -9.17,-3.8985 -19.04,-5.8477 -29.58,-5.8477 -27.52,0 -48.38,11.6992 -62.6,35.0859 l -62.6,103.8707 V 92.5547 c 0,-11.0117 -1.95,-21.0977 -5.85,-30.2695 -3.9,-9.1719 -9.17,-17.1993 -15.82,-24.0821 -6.66,-6.8789 -14.45,-12.2617 -23.39,-16.164 -8.94,-3.8985 -18.69,-5.8477 -29.24,-5.8477 -11.46,0 -22.47,2.4063 -33.01,7.2227 -10.56,4.8203 -19.26,11.5781 -26.15,20.2929 -11.92,15.1328 -17.88,36.6875 -17.88,64.664 v 282.734 c 0,16.504 1.83,29.922 5.5,40.243 3.68,10.312 10.09,19.371 19.27,27.172 8.7,7.793 17.76,13.066 27.17,15.82 9.4,2.75 23.27,4.133 41.61,4.133 h 63.29 c 18.8,0 33.25,-0.578 43.34,-1.727 10.09,-1.148 20.18,-2.867 30.27,-5.16 17.88,-5.039 34.16,-12.609 48.84,-22.695 14.67,-10.098 27.28,-22.133 37.83,-36.121 10.55,-13.985 18.8,-29.465 24.77,-46.43 5.96,-16.973 8.94,-34.625 8.94,-52.973 0,-22.015 -3.79,-42.074 -11.35,-60.187 -7.57,-18.121 -20.07,-37.035 -37.5,-56.75 l 35.78,-57.098"
         style="fill:#00adef;fill-opacity:1;fill-rule:nonzero;stroke:none"
         id="path855" />
      <path
         d="m 3519.98,337.449 c -13.3,0 -24.42,1.606 -33.36,4.813 -8.95,3.215 -16.85,8.254 -23.74,15.129 -14.21,15.136 -21.32,31.875 -21.32,50.218 0,13.297 3.78,25.914 11.35,37.84 7.56,11.922 16.86,20.406 27.86,25.453 4.12,1.832 7.8,3.211 11.01,4.125 3.21,0.914 7.57,1.606 13.06,2.063 5.51,0.457 12.73,0.805 21.68,1.035 8.94,0.223 20.98,0.348 36.11,0.348 h 152.71 c 10.56,0 18.8,0 24.77,0 5.96,0 10.55,0 13.76,0 3.21,0 5.62,-0.125 7.22,-0.348 1.61,-0.23 3.56,-0.578 5.85,-1.035 18.34,-2.297 33.25,-9.86 44.71,-22.703 11.47,-12.84 17.2,-28.199 17.2,-46.086 0,-10.086 -2.18,-19.949 -6.54,-29.582 -4.35,-9.629 -10.43,-17.887 -18.23,-24.762 -11.92,-11.012 -31.4,-16.508 -58.47,-16.508 h -33.7 V 109.063 c 0,-13.7622 -0.93,-25.0005 -2.75,-33.7114 -1.84,-8.711 -5.28,-16.9649 -10.32,-24.7657 -6.88,-11.0039 -15.71,-19.4882 -26.49,-25.4492 -10.78,-5.9609 -22.81,-8.9453 -36.12,-8.9453 -12.84,0 -24.64,2.7539 -35.42,8.2578 -10.77,5.5039 -19.83,13.2969 -27.17,23.3906 -5.05,7.793 -8.49,15.8165 -10.32,24.0743 -1.84,8.2578 -2.75,20.1757 -2.75,35.7699 v 229.765 h -40.59"
         style="fill:#00adef;fill-opacity:1;fill-rule:nonzero;stroke:none"
         id="path857" />
      <path
         d="m 4068.57,161.344 c 16.51,0 29.23,-1.262 38.18,-3.789 8.94,-2.52 17.31,-6.989 25.11,-13.407 16.51,-14.222 24.77,-32.109 24.77,-53.6636 0,-10.543 -2.19,-20.7539 -6.54,-30.6094 -4.36,-9.8594 -10.44,-17.9961 -18.23,-24.418 -3.67,-3.2109 -7.46,-5.8476 -11.36,-7.914 -3.89,-2.0586 -8.13,-3.6641 -12.72,-4.8125 -4.58,-1.1485 -9.98,-1.9492 -16.17,-2.4102 -6.19,-0.457 -13.64,-0.6875 -22.35,-0.6875 h -117.63 c -17.43,0 -29.81,0.457 -37.15,1.3711 -7.34,0.9258 -14.22,2.5313 -20.64,4.8164 -24.3,10.0938 -38.75,28.4414 -43.34,55.0352 -0.46,2.2929 -0.92,4.4687 -1.37,6.539 -0.46,2.0625 -0.81,4.6953 -1.04,7.9063 -0.22,3.207 -0.34,7.1092 -0.34,11.6992 0,5.039 0,11.461 0,19.258 v 249.019 c 0,9.629 0.12,17.434 0.34,23.395 0.23,5.961 0.58,10.891 1.04,14.789 0.45,3.902 1.14,7.223 2.06,9.977 0.92,2.75 2.06,5.96 3.44,9.628 3.21,8.715 8.14,16.282 14.79,22.704 6.65,6.418 13.88,11.46 21.67,15.132 4.12,1.832 7.8,3.211 11.01,4.125 3.21,0.914 6.99,1.606 11.35,2.063 4.35,0.457 9.86,0.805 16.5,1.035 6.66,0.223 15.48,0.348 26.5,0.348 h 90.79 c 11.01,0 19.72,0 26.14,0 6.42,0 11.47,-0.235 15.14,-0.696 3.66,-0.453 6.65,-0.914 8.94,-1.379 2.29,-0.457 4.82,-0.914 7.57,-1.371 16.05,-4.125 28.78,-12.148 38.17,-24.074 9.41,-11.926 14.11,-25.91 14.11,-41.961 0,-11.012 -2.18,-21.441 -6.54,-31.308 -4.35,-9.852 -10.43,-18 -18.23,-24.418 -6.88,-5.961 -14.67,-10.2 -23.38,-12.727 -8.72,-2.519 -20.18,-3.781 -34.4,-3.781 h -75.67 v -31.641 h 59.85 c 18.8,0 33.71,-5.047 44.71,-15.137 11.01,-10.093 16.51,-23.16 16.51,-39.207 0,-17.886 -6.64,-32.332 -19.94,-43.343 -5.97,-4.582 -12.27,-7.68 -18.93,-9.285 -6.64,-1.606 -15.93,-2.407 -27.86,-2.407 h -54.34 v -34.394 h 69.48"
         style="fill:#00adef;fill-opacity:1;fill-rule:nonzero;stroke:none"
         id="path859" />
      <path
         d="m 4518.11,139.332 c 5.04,-7.801 8.71,-15.937 11,-24.426 2.29,-8.484 3.44,-16.6208 3.44,-24.4216 0,-10.543 -1.95,-20.2891 -5.84,-29.2344 -3.91,-8.9414 -9.3,-16.7422 -16.17,-23.3828 -6.88,-6.6563 -14.91,-11.9258 -24.08,-15.8281 -9.17,-3.8985 -19.03,-5.8477 -29.58,-5.8477 -27.52,0 -48.38,11.6992 -62.6,35.0859 l -62.6,103.8707 V 92.5547 c 0,-11.0117 -1.95,-21.0977 -5.84,-30.2695 -3.9,-9.1719 -9.18,-17.1993 -15.83,-24.0821 -6.65,-6.8789 -14.44,-12.2617 -23.38,-16.164 -8.95,-3.8985 -18.69,-5.8477 -29.25,-5.8477 -11.46,0 -22.47,2.4063 -33.01,7.2227 -10.55,4.8203 -19.26,11.5781 -26.14,20.2929 -11.93,15.1328 -17.89,36.6875 -17.89,64.664 v 282.734 c 0,16.504 1.84,29.922 5.5,40.243 3.68,10.312 10.1,19.371 19.27,27.172 8.71,7.793 17.77,13.066 27.18,15.82 9.39,2.75 23.26,4.133 41.61,4.133 h 63.28 c 18.81,0 33.25,-0.578 43.35,-1.727 10.08,-1.148 20.17,-2.867 30.26,-5.16 17.89,-5.039 34.17,-12.609 48.84,-22.695 14.67,-10.098 27.29,-22.133 37.83,-36.121 10.56,-13.985 18.81,-29.465 24.77,-46.43 5.96,-16.973 8.95,-34.625 8.95,-52.973 0,-22.015 -3.79,-42.074 -11.36,-60.187 -7.57,-18.121 -20.06,-37.035 -37.49,-56.75 l 35.78,-57.098"
         style="fill:#00adef;fill-opacity:1;fill-rule:nonzero;stroke:none"
         id="path861" />
      <path
         id="path863"
         style="fill:#393536;fill-opacity:1;fill-rule:evenodd;stroke:none;stroke-width:0.133333"
         d="m 149.79102,225.75391 c -0.51614,0 -0.9375,0.47508 -0.9375,1.05468 v 2.61524 c -2.2412,0.31826 -4.39666,0.90208 -6.4336,1.71875 l -1.30469,-2.25977 c -0.2896,-0.50213 -0.89291,-0.70371 -1.33984,-0.44531 l -5.24805,3.03125 c -0.44693,0.2584 -0.57724,0.88015 -0.28711,1.38281 l 1.30665,2.26172 c -1.75107,1.37667 -3.3337,2.95757 -4.7129,4.70703 l -2.25781,-1.30469 c -0.50266,-0.29013 -1.12508,-0.16164 -1.38281,0.28516 l -3.0293,5.25 c -0.25826,0.4468 -0.0586,1.04829 0.44336,1.33789 l 2.24414,1.29688 c -0.82133,2.0396 -1.4086,4.19909 -1.73047,6.44336 h -2.58789 c -0.57973,0 -1.05468,0.42278 -1.05468,0.93945 v 6.05859 c 0,0.51614 0.47495,0.93946 1.05468,0.93946 h 2.57618 c 0.31613,2.24893 0.90438,4.41027 1.72265,6.45507 l -2.22461,1.28321 c -0.502,0.29013 -0.70162,0.89237 -0.44336,1.33984 l 3.0293,5.24805 c 0.25773,0.44693 0.88015,0.57671 1.38281,0.28711 l 2.22071,-1.28321 c 1.38026,1.75947 2.96834,3.34662 4.7246,4.73047 l -1.28125,2.2168 c -0.2896,0.50208 -0.16035,1.12448 0.28711,1.38281 l 5.24805,3.0293 c 0.44693,0.25833 1.05024,0.0587 1.33984,-0.44336 l 1.27149,-2.20312 c 2.0464,0.82446 4.2136,1.41158 6.4668,1.73242 v 2.54492 c 0,0.57968 0.42136,1.05273 0.9375,1.05273 h 6.06054 c 0.51614,0 0.93946,-0.47305 0.93946,-1.05273 v -2.54492 c 2.25373,-0.32032 4.41946,-0.91042 6.46679,-1.73438 l 1.27149,2.20508 c 0.2896,0.50208 0.89197,0.70169 1.33984,0.44336 l 5.24805,-3.0293 c 0.44746,-0.25833 0.57671,-0.88073 0.28711,-1.38281 l -1.2793,-2.21484 c 1.7568,-1.38386 3.34132,-2.97296 4.72266,-4.73243 l 2.2207,1.28125 c 0.50213,0.28947 1.12455,0.16231 1.38281,-0.28515 l 3.0293,-5.24805 c 0.2584,-0.44747 0.0592,-1.05024 -0.44336,-1.33984 l -2.22266,-1.28321 c 0.81827,-2.04426 1.40457,-4.20614 1.72071,-6.45507 h 2.57617 c 0.5796,0 1.05273,-0.42332 1.05273,-0.93946 v -6.05859 c 0,-0.51667 -0.47313,-0.93945 -1.05273,-0.93945 h -2.58789 c -0.32134,-2.24427 -0.91056,-4.40234 -1.73242,-6.44141 l 2.24609,-1.29688 c 0.502,-0.2896 0.70163,-0.89251 0.44336,-1.33984 l -3.0293,-5.25 c -0.25826,-0.44733 -0.88068,-0.57476 -1.38281,-0.28516 l -2.25781,1.30469 c -1.3792,-1.74893 -2.96183,-3.33036 -4.71289,-4.70703 l 1.30664,-2.26172 c 0.29013,-0.50266 0.15982,-1.12441 -0.28711,-1.38281 l -5.24805,-3.0293 c -0.44733,-0.2584 -1.05024,-0.0588 -1.33984,0.44336 l -1.30469,2.25977 c -2.03693,-0.8172 -4.19239,-1.40257 -6.43359,-1.7207 v -2.61329 c 0,-0.5796 -0.42332,-1.05468 -0.93946,-1.05468 z m 3.03125,16.70507 2.58203,6.69336 6.02148,-3.89843 -1.8457,6.93359 7.16406,0.38477 -5.56836,4.52539 5.56836,4.52343 -7.16406,0.38477 1.8457,6.93359 -6.02148,-3.89843 -2.58203,6.69336 -2.58204,-6.69336 -6.02148,3.89843 1.8457,-6.93359 -7.16406,-0.38477 5.56836,-4.52343 -5.56836,-4.52539 7.16406,-0.38477 -1.8457,-6.93359 6.02148,3.89843 z"
         transform="matrix(7.4999995,0,0,-7.4999995,-539.27186,2177.2785)" />
      <path
         id="path867"
         style="fill:#393536;fill-opacity:1;fill-rule:evenodd;stroke:none;stroke-width:0.133333"
         d="m 209.96484,226.02344 c -0.1222,-0.0226 -0.24838,-0.0198 -0.37304,0.0137 l -5.85352,1.57031 c -0.49853,0.13334 -0.78281,0.69923 -0.63281,1.25977 l 0.67578,2.52539 c -2.0828,0.888 -4.01273,2.01004 -5.76953,3.32617 l -1.8457,-1.8457 c -0.40987,-0.41 -1.04314,-0.4471 -1.40821,-0.082 l -4.28515,4.28515 c -0.36467,0.36507 -0.32979,0.99976 0.0801,1.41016 l 1.84766,1.84765 c -1.33533,1.7828 -2.45545,3.7187 -3.33398,5.76563 l -2.51953,-0.67578 c -0.56041,-0.14947 -1.12644,0.13388 -1.25977,0.63281 l -1.56836,5.85547 c -0.13333,0.4984 0.21446,1.02773 0.77539,1.17773 l 2.50391,0.67188 c -0.26507,2.18227 -0.27613,4.42081 -0.006,6.67187 l -2.49805,0.66993 c -0.56,0.15 -0.90926,0.67933 -0.77539,1.17773 l 1.56836,5.85547 c 0.13333,0.49893 0.6999,0.78281 1.25977,0.63281 l 2.49023,-0.66601 c 0.88747,2.09013 2.01465,4.02599 3.33398,5.78906 l -1.8164,1.81445 c -0.4104,0.40987 -0.4471,1.045 -0.082,1.41016 l 4.28515,4.28515 c 0.36507,0.36511 0.99767,0.32839 1.40821,-0.082 l 1.81445,-1.8125 c 1.78853,1.34219 3.73089,2.46537 5.78515,3.34766 l -0.66015,2.4707 c -0.15,0.5599 0.13374,1.12839 0.63281,1.26172 l 5.85352,1.56836 c 0.49866,0.13333 1.03035,-0.2155 1.17968,-0.77539 l 0.65821,-2.45703 c 2.19066,0.26614 4.43531,0.27396 6.69531,0 l 0.66016,2.45703 c 0.14933,0.55989 0.67906,0.90872 1.17773,0.77539 l 5.85352,-1.56836 c 0.49866,-0.13333 0.78348,-0.70182 0.63281,-1.26172 l -0.6582,-2.45703 c 2.09466,-0.89219 4.03287,-2.02214 5.79687,-3.34766 l 1.80078,1.79883 c 0.40934,0.41042 1.04287,0.44714 1.40821,0.082 l 4.28515,-4.28515 c 0.36533,-0.36516 0.32864,-1.00029 -0.082,-1.41016 l -1.80664,-1.80664 c 1.33867,-1.7912 2.4586,-3.73879 3.33594,-5.79492 l 2.47851,0.66406 c 0.56,0.15 1.12643,-0.13623 1.25977,-0.63476 l 1.56836,-5.85352 c 0.13333,-0.49893 -0.21344,-1.02773 -0.77344,-1.17773 l -2.48047,-0.66407 c 0.26133,-2.18653 0.26819,-4.42697 -0.008,-6.68164 l 2.48828,-0.66797 c 0.56,-0.15 0.90677,-0.6792 0.77344,-1.17773 l -1.56836,-5.85352 c -0.13467,-0.4984 -0.69977,-0.78476 -1.25977,-0.63476 l -2.49804,0.66992 c -0.892,-2.0844 -2.02047,-4.01806 -3.3418,-5.77539 L 239,238.48633 c 0.41067,-0.4104 0.44736,-1.04314 0.082,-1.40821 l -4.28515,-4.2871 c -0.36534,-0.36507 -0.99754,-0.32797 -1.40821,0.082 l -1.84375,1.84375 c -1.78533,-1.3328 -3.72348,-2.45004 -5.77148,-3.32618 l 0.67578,-2.52343 c 0.15067,-0.56054 -0.13353,-1.12643 -0.63086,-1.25977 l -5.85547,-1.57031 c -0.49867,-0.13333 -1.0284,0.21446 -1.17773,0.77539 l -0.67774,2.52344 c -2.17866,-0.26147 -4.41153,-0.2685 -6.6582,0.004 l -0.67774,-2.52734 c -0.112,-0.4199 -0.44001,-0.72116 -0.80664,-0.78906 z m 1.31446,16.93359 4.22461,5.79688 4.80859,-5.32227 0.0117,7.17383 7.01953,-1.48242 -4.20703,5.81054 6.54883,2.92969 -6.82032,2.22656 3.57813,6.21875 -6.82617,-2.20703 -0.76172,7.13477 -4.22656,-5.79883 -4.80664,5.32422 -0.0117,-7.17383 -7.01953,1.48242 4.20703,-5.8125 -6.54883,-2.92773 6.82031,-2.22656 -3.57812,-6.21875 6.82617,2.20703 z"
         transform="matrix(7.4999995,0,0,-7.4999995,-539.27186,2177.2785)" />
    </g>
  </g>
</svg>
