<?xml version="1.0" encoding="UTF-8"?>
<svg width="320" height="620" version="1.1" viewBox="0 0 84.6678 163.1528" xmlns="http://www.w3.org/2000/svg" xmlns:xlink="http://www.w3.org/1999/xlink">
  <style/>
  <g transform="translate(-62.565 -66.285)">
    <path d="m64.401 222.55h1.856c0.57875 0 1.0577-0.0898 1.4169-0.25944 0.35922-0.15965 0.53883-0.41909 0.53883-0.7384 0-0.30933-0.15966-0.56877-0.45901-0.76834-0.30933-0.20954-0.74838-0.30933-1.3371-0.30933-0.23948 0-0.49892 0.01-0.77831 0.0299s-0.53883 0.0499-0.78829 0.0699c-0.25944 0.0199-0.47896 0.0499-0.67853 0.0898s-0.33926 0.0699-0.41909 0.0798l-0.52886-1.9458c0.39914-0.19957 0.89806-0.35922 1.4868-0.46898 0.58872-0.0998 1.1575-0.15966 1.7063-0.15966 0.6486 0 1.2473 0.0599 1.7961 0.17961 0.54881 0.10977 1.0278 0.29936 1.4469 0.55879 0.40911 0.25944 0.72842 0.59871 0.9679 1.0078 0.2295 0.41909 0.33927 0.91801 0.33927 1.5167 0 0.31931-0.04989 0.61866-0.15965 0.85814-0.10976 0.24946-0.24946 0.45901-0.41909 0.62864-0.15965 0.15965-0.35922 0.29935-0.56877 0.40911-0.21953 0.10976-0.42907 0.18959-0.6486 0.24946 0.24946 0.0499 0.5089 0.10976 0.78829 0.18959 0.26942 0.0698 0.52886 0.19957 0.75836 0.3692 0.2295 0.15966 0.41909 0.39914 0.56877 0.69849 0.15966 0.29935 0.2295 0.67853 0.2295 1.1575 0 0.62864-0.12972 1.1575-0.38916 1.5966-0.25944 0.43904-0.61866 0.78829-1.0677 1.0677-0.44903 0.2794-0.97788 0.47897-1.5965 0.59871-0.60868 0.11974-1.2772 0.17961-1.9957 0.17961-0.6486 0-1.3171-0.0699-2.0156-0.19957-0.68851-0.1397-1.3271-0.3692-1.8859-0.68851l0.61866-1.9558c0.37918 0.16963 0.80825 0.28937 1.2972 0.3692 0.47896 0.0699 1.1276 0.10976 1.9358 0.10976 0.68851 0 1.2573-0.0798 1.7063-0.23948 0.43905-0.15966 0.65857-0.44903 0.65857-0.85814 0-0.19957-0.06985-0.3692-0.21952-0.5089-0.1397-0.1397-0.32929-0.24946-0.56877-0.32929-0.23948-0.0898-0.5089-0.14967-0.82821-0.18959-0.30933-0.0399-0.63862-0.0499-0.97788-0.0499h-1.836zm18.49 5.7376c-0.11974 0.0898-0.28937 0.20955-0.49892 0.34925-0.21952 0.13969-0.46898 0.25943-0.76834 0.37918-0.29935 0.10976-0.63862 0.20954-0.99784 0.29935-0.3692 0.0798-0.77832 0.11974-1.2174 0.11974-0.82821 0-1.6065-0.1397-2.325-0.41909-0.71844-0.28938-1.3471-0.67854-1.8959-1.1874-0.53883-0.49892-0.9679-1.0976-1.2772-1.7861-0.29935-0.6885-0.45901-1.4469-0.45901-2.2551 0-0.79827 0.14968-1.5367 0.44903-2.2352 0.29935-0.68851 0.70847-1.2872 1.2174-1.7861 0.51888-0.49892 1.1076-0.88808 1.7861-1.1675 0.66855-0.27939 1.387-0.42907 2.1553-0.42907 0.66855 0 1.3072 0.10977 1.8959 0.32929 0.58872 0.20955 1.1076 0.49892 1.5466 0.86812 0.44903 0.3692 0.79827 0.79827 1.0577 1.2972s0.38916 1.0278 0.38916 1.6065c0 0.30933-0.02993 0.59871-0.0898 0.8781-0.05987 0.26942-0.12972 0.51888-0.21953 0.72842-0.07983 0.21953-0.16963 0.40912-0.24946 0.56877-0.0898 0.15966-0.14968 0.2794-0.19957 0.34925h-6.9749c0.20955 0.7384 0.61866 1.3072 1.2273 1.7063 0.5987 0.39914 1.3072 0.5987 2.0955 0.5987 0.48894 0 0.93797-0.0798 1.3371-0.21952 0.39914-0.14968 0.66855-0.26942 0.79827-0.35922zm-3.6521-7.7732c-0.68851 0-1.2972 0.18959-1.846 0.54881-0.53883 0.3692-0.91801 0.88807-1.1375 1.5766h5.1488c0.06985-0.17961 0.10976-0.40911 0.10976-0.66855 0-0.23948-0.05987-0.44903-0.18959-0.62864-0.12972-0.17961-0.29935-0.33926-0.5089-0.459s-0.44903-0.20955-0.71844-0.2794c-0.2794-0.0599-0.55879-0.0898-0.85814-0.0898zm14.828 0.38915h-4.3206v4.3805c0 0.68851-0.07983 1.2573-0.24946 1.7163-0.16963 0.45901-0.40912 0.84816-0.71844 1.1675-0.29935 0.30933-0.66855 0.56877-1.0876 0.76834s-0.88808 0.38916-1.387 0.56877c-0.21952 0.0798-0.43905 0.12972-0.65857 0.15965-0.21952 0.0299-0.40911 0.0699-0.55879 0.0998l-0.41909-2.305c0.02994 0 0.12972-0.02 0.29935-0.0798 0.16963-0.0499 0.26942-0.0798 0.29935-0.0998 0.48894-0.16964 0.90803-0.4191 1.2373-0.75836 0.33927-0.33927 0.5089-0.7883 0.5089-1.3571v-6.6256h9.7888v10.557h-2.7341zm7.7432-5.528c0-0.33926 0.12972-0.62863 0.37918-0.86812 0.24946-0.23948 0.58873-0.34924 0.99784-0.34924 0.41909 0 0.74838 0.10976 0.99784 0.34924 0.25944 0.23949 0.37918 0.52886 0.37918 0.86812 0 0.32929-0.11974 0.61866-0.37918 0.85815-0.24946 0.23948-0.57875 0.35922-0.99784 0.35922-0.40911 0-0.74838-0.11974-0.99784-0.35922-0.24946-0.23949-0.37918-0.52886-0.37918-0.85815zm4.0313 0c0-0.33926 0.11974-0.62863 0.3692-0.86812 0.23949-0.23948 0.56877-0.34924 0.98787-0.34924 0.42907 0 0.76833 0.10976 1.0178 0.34924 0.25944 0.23949 0.37918 0.52886 0.37918 0.86812 0 0.32929-0.11974 0.61866-0.37918 0.85815-0.24946 0.23948-0.58872 0.35922-1.0178 0.35922-0.4191 0-0.74838-0.11974-0.98787-0.35922-0.24946-0.23949-0.3692-0.52886-0.3692-0.85815zm2.9636 12.912c-0.11974 0.0898-0.28938 0.20955-0.5089 0.34925-0.20955 0.13969-0.46899 0.25943-0.76834 0.37918-0.29935 0.10976-0.62864 0.20954-0.99784 0.29935-0.3692 0.0798-0.76833 0.11974-1.2174 0.11974-0.83819 0-1.6065-0.1397-2.325-0.41909-0.72842-0.28938-1.3571-0.67854-1.8959-1.1874-0.54881-0.49892-0.9679-1.0976-1.2772-1.7861-0.30933-0.6885-0.459-1.4469-0.459-2.2551 0-0.79827 0.14968-1.5367 0.44902-2.2352 0.29935-0.68851 0.69848-1.2872 1.2174-1.7861 0.5089-0.49892 1.1076-0.88808 1.7762-1.1675 0.67854-0.27939 1.397-0.42907 2.1753-0.42907 0.66856 0 1.2972 0.10977 1.8859 0.32929 0.5987 0.20955 1.1076 0.49892 1.5566 0.86812 0.43905 0.3692 0.79827 0.79827 1.0577 1.2972s0.38916 1.0278 0.38916 1.6065c0 0.30933-0.0299 0.59871-0.0898 0.8781-0.0599 0.26942-0.1397 0.51888-0.21952 0.72842-0.0898 0.21953-0.16964 0.40912-0.24946 0.56877-0.0898 0.15966-0.14968 0.2794-0.19957 0.34925h-6.9948c0.21952 0.7384 0.62863 1.3072 1.2273 1.7063 0.60868 0.39914 1.3072 0.5987 2.1154 0.5987 0.48894 0 0.93797-0.0798 1.3271-0.21952 0.39914-0.14968 0.66856-0.26942 0.80825-0.35922zm-3.6521-7.7732c-0.69849 0-1.3172 0.18959-1.856 0.54881-0.54881 0.3692-0.92799 0.88807-1.1375 1.5766h5.1488c0.0798-0.17961 0.11974-0.40911 0.11974-0.66855 0-0.23948-0.0699-0.44903-0.19957-0.62864-0.12972-0.17961-0.29935-0.33926-0.49892-0.459-0.20955-0.11974-0.44903-0.20955-0.72842-0.2794-0.26942-0.0599-0.55879-0.0898-0.84816-0.0898zm7.0348-1.9757h2.754v3.7818h4.9193v-3.7818h2.754v10.557h-2.754v-4.4104h-4.9193v4.4104h-2.754zm16.365 10.557h-2.764v-10.557h2.764v4.0812h0.02l0.1397-0.32929 3.3328-3.7519h3.4426l-4.3406 4.6799 4.5901 5.8773h-3.233l-3.9514-5.2586zm15.926-1.4269c-0.42907 0.45901-0.94795 0.86812-1.5566 1.2273-0.59871 0.35923-1.2772 0.53884-2.0057 0.53884-0.68851 0-1.3172-0.1397-1.8759-0.41909-0.55879-0.28938-1.0378-0.66856-1.4369-1.1575-0.39913-0.49892-0.69848-1.0677-0.91801-1.7163-0.20954-0.6486-0.31932-1.3471-0.31932-2.0755 0-0.88807 0.13971-1.6963 0.42908-2.4248 0.2794-0.71844 0.68851-1.3371 1.2074-1.846 0.51888-0.51887 1.1575-0.91801 1.8959-1.1974 0.74838-0.27939 1.5666-0.42907 2.4746-0.42907 0.55879 0 1.0876 0.0699 1.5866 0.20955 0.5089 0.1397 0.97788 0.29935 1.407 0.49892 0.42907 0.18959 0.80825 0.38916 1.1276 0.61866 0.31931 0.21952 0.56877 0.41909 0.7384 0.60868v8.9905h-2.754zm-2.5844-0.5987c0.25944 0 0.5089-0.0599 0.76834-0.17961 0.26942-0.11974 0.5089-0.2794 0.7384-0.46899 0.2295-0.19956 0.43905-0.40911 0.61866-0.65857s0.32929-0.48894 0.45901-0.7384v-3.6122c-0.0798-0.0499-0.17962-0.11974-0.29936-0.21952-0.12971-0.0998-0.27939-0.19957-0.459-0.29936-0.17961-0.0998-0.39914-0.18958-0.62864-0.25943-0.23948-0.0798-0.48894-0.11974-0.76834-0.11974-0.43905 0-0.85814 0.0798-1.2473 0.2295-0.38915 0.15965-0.72842 0.3692-1.0178 0.65857-0.28937 0.2794-0.51888 0.63862-0.67853 1.0378-0.16963 0.40911-0.25944 0.86812-0.25944 1.397 0 1.0078 0.23948 1.7961 0.69849 2.3749 0.46898 0.56877 1.1575 0.85814 2.0755 0.85814z" fill="#004020"/>
    <g transform="translate(-113.23 90.3)" fill="none" stroke="#004020" stroke-linecap="round">
      <g transform="matrix(.01 0 0 .01 69.728 -47.085)" stroke-width="200">
        <path d="m18767 16953v-5965c-34-1067-2272-962-2279-2216v-1240h117c203 0 305-102 305-306v-293c0-204-102-306-305-306h-3443c-203 0-305 102-305 306v293c0 204 102 306 305 306h174v1250c-8 1254-2246 1149-2279 2216v5965" stroke-linejoin="bevel"/>
        <path d="m13336 7532h3152" stroke-linecap="butt"/>
      </g>
      <g transform="matrix(.01 0 0 .01 69.728 -47.085)" fill="#00c06077" stroke-width="120">
        <path d="m13146 11993 945 546 536-992c35-64-179-683-569-674s-912 1120-912 1120z"/>
        <path d="m16322 11494s-388-709-686-702l-1033 27 695 1245-273 212 1066 57 571-932z"/>
        <path d="m12618 12761s-550 1160 71 1160h600l347-580 323 124-504-942-1093-4z"/>
        <path d="m15848 12797 1064-548 613 1186-745 1139z"/>
        <path d="m14642 14143v1198h-1336l-669-1184z"/>
        <path d="m15529 15205s1283-42 998-596l-274-532-675-43-39-343-605 879 497 974z"/>
      </g>
      <g transform="matrix(.01 0 0 .01 69.728 -47.085)" fill="#00c06077" stroke-width="100">
        <path d="m14352 6144c570-2421-1130-2338-1961-2646 105 1158-345.346 2120.4336 987 2641 261.533 102.1845 456.531 150.3407 794 146-499-609-1079-1779-950-1656 161 152 848 1160 1130 1515z"/>
        <path d="m15465 6255c3127-860 1968-2753 1802-3898-1259 844-2197.862 1429.3077-2337.157 1982.6025-139.294 553.2948 15.234 1180.802 261.157 1798.3975 386-954 1362-2347 1302-2122-75 279-797 1694-1028 2239z"/>
      </g>
    </g>
  </g>
</svg>
