<svg xmlns="http://www.w3.org/2000/svg" width="1000" height="1000" viewBox="0 0 264.58 264.58"><defs/><style/><g fill="none" stroke="#004020" stroke-linecap="round" stroke-miterlimit="10" stroke-width="1.2"><path stroke-linecap="butt" d="M203.235 28.593h31.226" transform="matrix(1.37266 0 0 1.34047 -168.114 55.334)"/><path d="M257.398 122.545V62.937c0-9.475-22.937-9.475-22.937-22.304v-12.04h2.313c1.495 0 2.698-1.233 2.698-2.764v-3.947c0-1.531-1.203-2.763-2.698-2.763h-35.852c-1.495 0-2.698 1.232-2.698 2.763v3.947c0 1.531 1.203 2.764 2.698 2.764h2.313v12.04c0 12.83-22.937 12.83-22.937 22.304v59.608" transform="matrix(1.37266 0 0 1.34047 -168.114 55.334)"/><path d="M224.663 105.35s12.74-.42 9.91-5.942l-2.72-5.303-6.704-.43-.387-3.418-6.008 8.762 4.935 9.71zm-8.809-10.587v11.942h-13.267l-6.644-11.803zm11.976-13.418l10.567-5.463 6.087 11.823-7.398 11.354zm-32.075-.359s-5.462 11.563.705 11.563h5.958l3.446-5.781 3.208 1.236-5.005-9.39-10.855-.04zm36.782-12.63s-3.853-7.068-6.812-6.998l-10.258.27 6.902 12.41-2.711 2.113 10.586.569 5.67-9.291zm-31.539 4.974l9.384 5.443 5.323-9.889c.348-.638-1.777-6.808-5.65-6.718-3.873.09-9.057 11.164-9.057 11.164zm41.384-96.845c-12.547 8.482-26.269 9.326-23.967 27.937 0 0 1.135 6.197 3.279 10.06 3.846-9.587 9.989-18.387 12.975-21.325-2.622 5.729-7.943 17.024-10.245 22.5 31.162-8.642 19.612-27.665 17.958-39.172zm-48.591 11.467c1.046 11.637-3.428 21.274 9.836 26.54 0 0 3.226 1.52 7.912 1.467-4.12-3.947-6.586-8.54-9.467-16.642 3.273 3.69 7.627 12.177 11.26 15.225 5.681-24.33-11.26-23.495-19.541-26.59z" transform="matrix(1.37266 0 0 1.34047 -168.114 55.334)"/></g><path fill="#004020" d="M185.552 240.51l-.644-1.99h-.11q-1.095 1.305-2.204 1.783-1.109.465-2.848.465-2.232 0-3.491-1.137-1.246-1.137-1.246-3.217 0-2.209 1.739-3.333t5.298-1.227l2.616-.078v-.762q0-1.37-.685-2.041-.67-.685-2.095-.685-1.164 0-2.232.323-1.068.323-2.053.762l-1.041-2.17q1.232-.607 2.697-.917 1.465-.323 2.766-.323 2.89 0 4.354 1.188 1.479 1.189 1.479 3.734v9.625zm-4.793-2.068q1.753 0 2.807-.917 1.068-.93 1.068-2.597v-1.24l-1.944.078q-2.273.077-3.313.723-1.027.633-1.027 1.951 0 .956.602 1.486.603.517 1.807.517zm-11.24-12.22h3.532l-6.257 6.885 6.79 7.402h-3.696l-6.545-7.247v7.247h-3.217v-14.288h3.217v6.938zm-24.345 0v5.735h7.134v-5.736h3.217v14.288h-3.217v-6.162h-7.134v6.162h-3.217v-14.288zm-12.76 14.546q-3.533 0-5.532-1.938-1.986-1.95-1.986-5.361 0-3.501 1.849-5.504 1.848-2.002 5.08-2.002 2.998 0 4.737 1.718 1.739 1.718 1.739 4.728v1.641H128.21q.068 2.08 1.191 3.204 1.123 1.11 3.163 1.11 1.342 0 2.492-.232 1.164-.245 2.492-.8v2.467q-1.178.53-2.383.75-1.205.219-2.752.219zm-.59-12.506q-1.533 0-2.464.918-.917.917-1.095 2.674h6.873q-.027-1.77-.904-2.674-.876-.918-2.41-.918zm-4.258-5.826q0-.801.452-1.15.466-.362 1.123-.362.726 0 1.15.4.438.401.438 1.112 0 .685-.438 1.098-.438.413-1.15.413-.657 0-1.123-.374-.452-.375-.452-1.137zm5.381 0q0-.801.452-1.15.466-.362 1.123-.362.725 0 1.164.4.438.401.438 1.112 0 .697-.452 1.11-.452.401-1.15.401-.657 0-1.123-.374-.452-.375-.452-1.137zM121.2 240.509h-3.245V228.6h-4.176q-.384 4.598-1.041 7.182-.644 2.584-1.698 3.772-1.04 1.189-2.71 1.189-1.055 0-1.767-.284v-2.377q.506.18 1.013.18 1.397 0 2.19-2.958.809-2.971 1.26-9.082H121.2zm-21.99.259q-3.532 0-5.531-1.938-1.986-1.95-1.986-5.361 0-3.501 1.849-5.504 1.848-2.002 5.08-2.002 2.998 0 4.737 1.718 1.739 1.718 1.739 4.728v1.641H95.007q.068 2.08 1.191 3.204 1.123 1.11 3.163 1.11 1.342 0 2.492-.232 1.164-.245 2.492-.8v2.467q-1.178.53-2.383.75-1.204.219-2.752.219zm-.588-12.506q-1.534 0-2.465.918-.917.917-1.095 2.674h6.873q-.027-1.77-.904-2.674-.876-.918-2.41-.918zm-17.239 3.67q2.205 0 3.245-.453 1.041-.465 1.041-1.421 0-1.744-3.286-1.744-2.19 0-4.477.93l-1.04-2.26q2.642-1.021 5.832-1.021 2.82 0 4.381.982 1.561.968 1.561 2.79 0 2.403-2.916 3.152v.104q1.82.465 2.601 1.33.794.866.794 2.145 0 1.964-1.834 3.14-1.821 1.162-5.094 1.162-3.573 0-5.463-.892v-2.622q2.506 1.11 5.19 1.11 1.93 0 2.97-.503 1.055-.517 1.055-1.563 0-1.072-1.054-1.576-1.055-.504-3.26-.504h-1.847v-2.287z"/></svg>