<svg version="1" xmlns="http://www.w3.org/2000/svg" width="933.333" height="933.333" viewBox="0 0 700.000000 700.000000"><path d="M444.8.5c-.1.2-6.1.6-13.3.9-7.1.4-14.3.9-16 1.1-1.6.2-6.3.7-10.4 1-22.7 1.8-49.4 6.2-73.8 12-69.5 16.7-120.1 49.3-151.8 97.9-14.8 22.6-27.4 55.3-32.9 85.1-2.3 11.9-2.5 13.5-3.2 19.5-.3 3-.7 6.5-.9 7.6-2.6 16.9-2.7 80 0 152.9.2 4.9.6 17.3 1 27.5s.8 21.6 1 25.5c.3 8.9 1.5 33.3 2 40.5.2 3 .6 10.4 1 16.4.3 6 .9 11.4 1.2 11.9.3.5-31.8 33.4-71.4 73C-4 654.9.5 649.4.5 665c0 7.6.4 9.3 3.3 15.2 3.8 7.7 9.2 13 17.1 16.6 4.6 2.2 7 2.7 14.1 2.7 15.7 0 10.8 4.1 92.2-77.2 39.4-39.3 72-71.3 72.5-71 1 .6 20 1.9 48.8 3.2 7.7.3 17.2.8 21 1 3.9.2 15.1.7 25 1 9.9.3 21.7.8 26.3 1 35.2 1.8 123.9 2.6 138.2 1.2 43.7-4.2 80.4-16 112.2-36.1 46.7-29.5 81.4-78.1 102.6-143.6 5.9-18.2 12-42.5 14.7-58.5.3-1.7 1-5.3 1.5-8 .5-2.8 1.2-6.8 1.5-9 .3-2.2.7-5.4 1-7 .4-2.9.7-4.5 1.9-14.5.9-7 1.6-13.9 2.1-20.5.3-3.3.7-8.3 1-11.1 2.6-27 2.6-108.1 0-134.4-.2-1.9-.6-9.1-1-16-.3-6.8-.8-13.8-1-15.5-.2-1.6-.6-6.6-1-11-.3-4.4-.7-9.6-1-11.5-.2-1.9-.7-6-1-9-.2-3-.7-6.6-.9-8-.2-1.4-.7-4.9-1-7.8-1-8.7-1.7-12.5-3.1-17.5-.8-2.6-1.3-5-1.2-5.4.1-.3-.5-.7-1.3-.8-.8-.2-3.3-.7-5.5-1.3-2.2-.6-6.9-1.4-10.5-1.7-3.6-.3-7.2-.8-8-1-.8-.2-4.6-.6-8.5-1-3.8-.3-8.8-.8-11-1-5.8-.6-15.6-1.4-26.5-2-5.2-.3-12.2-.8-15.5-1-7.9-.6-18.6-1.2-37-2.1-8.2-.3-18.4-.8-22.5-1-10-.5-94.7-1.3-95.2-.9zM539 71.4c5.8.3 15.2.7 21 1 5.8.3 15.5.8 21.5 1.1 6.1.3 13 .7 15.5.9 2.5.3 9.5.7 15.5 1.1 6.1.4 11.3 1 11.7 1.3.3.4.9 4.7 1.2 9.7.4 4.9.9 11.7 1.2 15 .5 6.2.8 10.9 2.1 37.5 1.4 28.5.8 90.8-1.1 109-.2 1.9-.7 7.1-1.1 11.5-.4 4.4-.8 8.2-1 8.5-.1.3-.6 4.1-1 8.4-.6 7.6-.9 9.2-2 14.6-.3 1.4-.7 4.1-.9 6-1.8 14.3-9.5 45.7-15.8 64.5-8.1 23.8-22.3 51.6-33.4 65.4-13 16.3-25.1 27.8-38.4 36.6-9.3 6.2-25.6 14.5-28.2 14.5-.8 0-1.8.4-2.4.9-1.1 1.1-21.4 6.8-26.9 7.6-2.3.3-5.2.7-6.5 1-15.6 3-84.3 2.6-175.5-1.1-10.4-.4-21.4-.8-24.2-.8-2.9-.1-5.3-.3-5.3-.6s28-28.5 62.3-62.7l62.2-62.1 11 4.8c28.7 12.5 85.7 36.6 92 38.8 12 4.2 23.5 1.9 32.9-6.8 2.5-2.3 5.8-6.8 7.3-9.9 2.4-4.7 2.8-6.8 2.7-13.6 0-6.6-.5-9-2.7-13.6-3.5-7.2-10-13.2-18.5-17-3.7-1.6-7.5-3.4-8.4-3.9-1-.6-2.2-1-2.7-1s-3.8-1.3-7.3-2.9c-3.5-1.6-17.7-7.7-31.6-13.6l-25.4-10.8 51-51.1c34.4-34.6 51.5-52.4 52.7-55.1 6.5-14.1 4.1-29.5-6.4-40.2-9.7-10-24.4-13.2-37.5-8.1-5.6 2.1-8.4 4.6-32.2 28.1l-26.1 25.8-7-11.8c-3.9-6.5-10.6-17.8-14.9-25.2-9-15.2-14.5-21-22.7-23.7-17.1-5.8-34.1 1.3-42.3 17.6-2.4 4.7-2.8 6.7-2.8 14 0 10.3-.1 10 17.7 40.4 7.2 12.2 14.1 24.1 15.5 26.6 1.4 2.5 3.5 6.1 4.8 8.1l2.2 3.6-87.9 87.9c-80.3 80.3-87.9 87.6-88 84.9-.1-1.7-.3-5-.4-7.5-.2-2.5-.6-12.6-1-22.5-.3-9.9-.8-21.8-1-26.5-1.9-45.1-2.6-121.3-1.2-138.5.5-5.5 1.7-15.2 2.8-21.5 8.7-50.5 29.9-83.8 68.4-107.2 20.9-12.8 50.7-23.6 79-28.7 3.3-.6 7.1-1.3 8.5-1.6 1.4-.3 4.4-.8 6.6-1.1 2.3-.2 5.3-.7 6.5-.9 1.3-.3 4.7-.8 7.4-1.1 2.8-.3 6.1-.7 7.5-1 1.4-.2 5.4-.6 9-.9 3.6-.4 8.1-.8 10-1 1.9-.2 10-.7 18-1.1 8-.4 14.7-.8 14.9-1 .5-.4 76.4.4 89.1 1z"/></svg>