<svg version="1" viewBox="0 0 16 16" xmlns="http://www.w3.org/2000/svg"><path d="m10.171056 .00247476c-.002296 .00457594-.139629 .01373078-.7839826 .06178965-.6443537 .04805887-1.2555177 .14875389-1.8140339 .2814879-1.5908557 .38218255-2.7490902 1.1282393-3.4747036 2.2404588-.3387721 .517205-.6271863 1.2655502-.7668153 2.1100132s-.141918 2.2885178-.050357 4.4488783c.091562 2.1603604 .1052925 2.2839404 .1121595 2.2953824 .00687 .01144-.7279024 .764365-1.6343468 1.670618-1.8609578 1.86743-1.7579528 1.741562-1.7579528 2.098571 0 .173927 .00915604 .212832 .07553703 .347854 .08698205 .176216 .2105881 .297507 .39141921 .379894 .10529402 .05035 .16023003 .06179 .32274911 .06179 .35937323 0 .24721213 .09383 2.110459-1.766735 .9018664-.899388 1.6480807-1.631713 1.6595257-1.624848 .02289 .01373 .4578002 .04348 2.0177547 .113285 1.5599546 .0698 3.5902977 .08812 3.9176257 .05607 1.000293-.09612 1.840356-.366163 2.568259-.826155 1.068963-.675113 1.863247-1.787332 2.348516-3.2863113 .135051-.41651 .274679-.9726195 .400591-1.8685741s.135031-1.0103805 .141901-1.074459c.05952-.6178998 .05952-2.4738875 0-3.0757676-.0046-.043482-.01373-.2082551-.130471-1.2357994-.11674-1.0275443-.12986-1.1049553-.12986-1.1049553s-.105512-.0204668-1.56152-.14316676c-1.456009-.12269995-1.689487-.13414269-1.783336-.13871975-.2289-.01144259-2.167684-.02975073-2.179129-.02059662zm2.92191 1.667181c1.056374 .058358 1.169927 .067453 1.169927 .067453s.03523 .1190663 .09246 1.1031289c.05723 .9840625 .04349 2.4098089-.06753 3.3423799-.111015 .9325709-.28727 1.6511646-.431477 2.0814061-.185409 .5446674-.510447 1.1808752-.764526 1.4966907-.29757 .3730286-.57454 .6362076-.878977 .8375976-.212876 .141888-.573484 .338085-.964906 .438799-.391423 .100713-.500058 .110453-.500058 .110453-.357085 .06865-1.9296283 .0595-3.2835726 .0069-1.3539443-.05264-1.4088804-.05724-1.4088804-.06407 0-.0069 .6409204-.652228 1.4260481-1.4349005l1.4237586-1.4211692 .25179 .1098486c.6569435 .2860645 1.9616743 .8375973 2.1058813 .8879445 .27468 .096118 .537915 .043479 .753081-.155619 .05723-.052638 .132762-.1556191 .167097-.2265632 .05494-.1075606 .06294-.1579034 .0618-.3112382-.0011-.1533348-.01144-.205967-.0618-.3112388-.080115-.1648132-.228895-.302124-.57682-.4531658-.347924-.1510418-.672966-.2906428-.991138-.4256646l-.581408-.2471717 1.16739-1.1694323c.787417-.7918271 1.178836-1.1991832 1.206304-1.2609732 .148785-.322681 .080267-.6906733-.150923-.9275358s-.554089-.2945325-.853948-.1778182c-.128184 .0480585-.192277 .1052718-.737059 .6430735l-.597429 .5904375-.4337657-.7323257c-.2735355-.4622805-.3994309-.5950145-.5871286-.6568045-.3914197-.132734-.7800446 .0300056-.9682473 .4027791-.0544334 .1078164-.0640915 .1190029-.0640915 .3203925 0 .2013895-.0023 .2288517 .4337601 .9737642 .1648087 .2791991 .486421 .8272995 .486421 .8272995l-2.0120326 2.0116069c-1.838071 1.8376788-2.0120351 2.0047407-2.0143241 1.9429506-.0022884-.0389029-.0068653-.1144259-.0526462-1.2197799s-.0618038-2.8492039-.0297578-3.2428289c.011445-.1258685 .038913-.3478547 .064092-.4920313 .1991431-1.1557014 .6844113-1.9177777 1.5656767-2.4532908 .4784012-.2929303 1.1605235-.5400901 1.7465081-.6430708 .5859845-.1029807 .66381-.1144287 1.380265-.1796497 .7164549-.065221 2.4538119-.046921 3.5101859 .011437z"/></svg>